# xmcd CD database file
#
# Track frame offsets:
#	150
#	13942
#	31785
#	46985
#	62600
#	77590
#	94872
#	110020
#	125735
#	143130
#	160175
#	176082
#
# Disc length: 2546 seconds
#
# Revision: 6
# Processed by: cddbd v1.5.1PL2 Copyright (c) Steve Scherf et al.
# Submitted via: CDex 1.51
#
DISCID=9d09f00c
DTITLE=Bill Wyman's Rhythm Kings - Double Bill (Disk 2)
DYEAR=2001
DGENRE=Rock
TTITLE0=The Joint Is Jumping
TTITLE1=Brownskin Girl
TTITLE2=Tired and Sleepy
TTITLE3=Lonely Blue Boy
TTITLE4=Bye Bye Blues
TTITLE5=Where's The Money
TTITLE6=Jellyroll Fool
TTITLE7=Jealous Girl
TTITLE8=My Handy Man
TTITLE9=Rollin' and Stumblin'
TTITLE10=Keep On Truckin'
TTITLE11=Breakin' Up The House
EXTD=YEAR: 2001
EXTT0=
EXTT1=
EXTT2=
EXTT3=
EXTT4=
EXTT5=
EXTT6=
EXTT7=
EXTT8=
EXTT9=
EXTT10=
EXTT11=
PLAYORDER=
